<?xml version="1.0" encoding="UTF-8"?>
<svg id="Layer_2" data-name="Layer 2" xmlns="http://www.w3.org/2000/svg" viewBox="0 0 223.76 223.76">
  <defs>
    <style>
      .cls-1 {
        fill: #c46b7f;
      }

      .cls-2 {
        fill: #a93b62;
      }

      .cls-3 {
        fill: #c56e80;
      }

      .cls-4 {
        fill: #c56b7f;
      }

      .cls-5 {
        fill: #8e234d;
      }

      .cls-6 {
        fill: #fefefe;
      }

      .cls-7 {
        fill: #e8e8e8;
      }
    </style>
  </defs>
  <g id="Layer_1-2" data-name="Layer 1">
    <g>
      <rect class="cls-7" width="223.76" height="223.76" rx="42.02" ry="42.02"/>
      <g>
        <path class="cls-6" d="M99.18,139.23c9.3,9.7,11.87,24.05,9.24,36.97-1.53-2.05-2.84-4.25-4.55-6.17-8.09-9.07-20.44-13.22-30.03-20.25-6.06-4.45-11.65-11.54-15-18.27-7.51-15.07-1.51-28.25-17.1-40.33-.84-.65-3.39-2.64-4.18-2.96-.11-.05-.41-.07-.36.12,6.79,6.01,11.04,13.34,12.69,22.3,1.67,8.99,1.75,15.48,6.15,23.92,3.83,7.34,7.99,10.69,13.51,16.31.22.22.54.21.41.69-14.16-1.23-31.01-2.54-38.94-16.14-.05-.17.2-.17.36-.12.95.3,2.37,1.23,3.52,1.66,3.9,1.43,7.84,2.19,12.02,2.03.3,0,.92.19.86-.24-11.91-4.39-23.24-11.54-28.03-23.85-.62-1.58-1.33-3.56-1.42-5.24,4.77,5.05,11.48,8.95,18.35,10.24.25.05.81.33.75-.13-11.42-6.13-21.92-16.38-24.97-29.38-.8-3.42-1.2-7.06-1.03-10.55,3.78,7.25,9.08,12.97,16.07,17.21,1.48.9,3.74,2.2,5.32,2.81.24.09.77.38.92.07-14.67-10.96-28.03-33.11-21.23-51.79.13-.34-.08-.42.52-.35,2.49,12.54,10.7,22.24,20.34,30.06,8.64,7.01,20.67,13.21,25.3,23.75,2.75,6.26,3.01,13.3,5.51,19.64,3.1,7.86,10.39,14.36,18.11,17.5-2.65-6.38-12.8-12.23-11.53-19.78.64-3.82,3.24-1.26,4.88.18,2.95,2.6,5.49,5.71,8.51,8.25,4.8,4.05,10.66,7.28,15.03,11.84Z"/>
        <path class="cls-6" d="M129.24,125.42c-5.61,4.47-11.41,8.73-17.12,13.07l-.26.15-.48-.4c-14.68-12.29-34.31-23.73-44.36-40.42-6.8-11.29-7.74-26.02,1.23-36.48,8.12-9.46,21.52-10.96,31.92-4.19,4.82,3.13,8.08,7.98,11.7,12.33h.25c5.53-7.51,11.64-14.63,21.4-16.19,8.1-1.29,16.93,1.74,22.23,8.06,8.81,10.5,7.92,25.02,1.23,36.23-6.59,11.05-17.76,19.9-27.74,27.84Z"/>
        <path class="cls-6" d="M212.43,80.69c.64,17.32-11.47,31.26-25.88,39.08-.05.46.5.18.75.13,4.54-.85,10.1-3.4,13.77-6.19,1.64-1.25,2.92-2.84,4.58-4.05-2.81,14.8-16.09,24.28-29.45,29.09-.06.43.56.23.86.24,5.54.2,11.09-1.26,15.9-3.94.26.28-2.33,3.64-2.7,4.07-8.95,10.38-23.73,11.29-36.48,12.44,8.11-7.18,14.74-15.7,17.67-26.31,1.89-6.84,1.76-14.15,4.08-20.82,2.12-6.12,6.19-11.37,10.78-15.84l-.36-.12c-7.51,4.77-12.78,10.71-15.04,19.47-2.82,10.97-1.93,17.48-8.4,27.83-11.73,18.77-27.85,19.25-41.27,32.91-2.08,2.12-3.45,4.88-5.2,6.88-.19.22-.32.64-.58.16-.29-.52-.82-4.91-.87-5.78-.77-12.7,2.82-24.21,12.33-32.8,4.26-3.84,9.39-6.66,13.68-10.48,2.44-2.16,4.6-4.86,7.03-7.02.6-.54,2.89-2.55,3.45-2.74,1.32-.43,2.1,2.04,2.17,3.06.47,6.69-9.39,12.75-11.53,18.78,6.4-2.78,12.55-7.77,16.12-13.82,4.3-7.29,4.04-16.11,7.57-23.73,4.99-10.77,18.15-17.29,26.95-24.81,8.9-7.62,16.29-17.08,18.62-28.83l.86,2.22c5.3,19.49-7.1,38.43-21.57,50.28,9.37-3.66,17.76-10.99,21.94-20.2.43-.06.23.56.24.85Z"/>
        <path class="cls-3" d="M108.42,176.21c-1.53-2.05-2.84-4.25-4.55-6.17-8.09-9.07-20.44-13.22-30.03-20.25-6.06-4.45-11.65-11.54-15-18.27-7.51-15.07-1.51-28.25-17.1-40.33-.84-.65-3.39-2.64-4.18-2.96-.11-.05-.41-.07-.36.12,6.79,6.01,11.04,13.34,12.69,22.3,1.67,8.99,1.75,15.48,6.15,23.92,3.83,7.34,7.99,10.69,13.51,16.31.22.22.54.21.41.69-14.16-1.23-31.01-2.54-38.94-16.14-.05-.17.2-.17.36-.12.95.3,2.37,1.23,3.52,1.66,3.9,1.43,7.84,2.19,12.02,2.03.3,0,.92.19.86-.24-11.91-4.39-23.24-11.54-28.03-23.85-.62-1.58-1.33-3.56-1.42-5.24,4.77,5.05,11.48,8.95,18.35,10.24.25.05.81.33.75-.13-11.42-6.13-21.92-16.38-24.97-29.38-.8-3.42-1.2-7.06-1.03-10.55,3.78,7.25,9.08,12.97,16.07,17.21,1.48.9,3.74,2.2,5.32,2.81.24.09.77.38.92.07-14.67-10.96-28.03-33.11-21.23-51.79.13-.34-.08-.42.52-.35,2.49,12.54,10.7,22.24,20.34,30.06,8.64,7.01,20.67,13.21,25.3,23.75,2.75,6.26,3.01,13.3,5.51,19.64,3.1,7.86,10.39,14.36,18.11,17.5-2.65-6.38-12.8-12.23-11.53-19.78.64-3.82,3.24-1.26,4.88.18,2.95,2.6,5.49,5.71,8.51,8.25,4.8,4.05,10.66,7.28,15.03,11.84,9.3,9.7,11.87,24.05,9.24,36.97Z"/>
        <path class="cls-3" d="M212.43,80.69c.64,17.32-11.47,31.26-25.88,39.08-.05.46.5.18.75.13,4.54-.85,10.1-3.4,13.77-6.19,1.64-1.25,2.92-2.84,4.58-4.05-2.81,14.8-16.09,24.28-29.45,29.09-.06.43.56.23.86.24,5.54.2,11.09-1.26,15.9-3.94.26.28-2.33,3.64-2.7,4.07-8.95,10.38-23.73,11.29-36.48,12.44,8.11-7.18,14.74-15.7,17.67-26.31,1.89-6.84,1.76-14.15,4.08-20.82,2.12-6.12,6.19-11.37,10.78-15.84l-.36-.12c-7.51,4.77-12.78,10.71-15.04,19.47-2.82,10.97-1.93,17.48-8.4,27.83-11.73,18.77-27.85,19.25-41.27,32.91-2.08,2.12-3.45,4.88-5.2,6.88-.19.22-.32.64-.58.16-.29-.52-.82-4.91-.87-5.78-.77-12.7,2.82-24.21,12.33-32.8,4.26-3.84,9.39-6.66,13.68-10.48,2.44-2.16,4.6-4.86,7.03-7.02.6-.54,2.89-2.55,3.45-2.74,1.32-.43,2.1,2.04,2.17,3.06.47,6.69-9.39,12.75-11.53,18.78,6.4-2.78,12.55-7.77,16.12-13.82,4.3-7.29,4.04-16.11,7.57-23.73,4.99-10.77,18.15-17.29,26.95-24.81,8.9-7.62,16.29-17.08,18.62-28.83l.86,2.22c5.3,19.49-7.1,38.43-21.57,50.28,9.37-3.66,17.76-10.99,21.94-20.2.43-.06.23.56.24.85Z"/>
        <path class="cls-2" d="M156.97,97.58l-.43.29-18.63-13.77-24.51,52.78-1.29,1.61-.26.15-.48-.4-1.37-1.78-24.18-52.24-18.28,13.81-.54-.21c-6.8-11.29-7.74-26.02,1.23-36.48l.49-.18,17.38,21.29c8.08-4.08,16.19-8.29,24.33-12.6l1.43-.37h.25l.38-.36,25.19,13.28,17.48-21.14.57.08c8.81,10.5,7.92,25.02,1.23,36.23Z"/>
        <path class="cls-5" d="M156.97,97.58c-6.59,11.05-17.76,19.9-27.74,27.84-5.61,4.47-11.41,8.73-17.12,13.07l25.63-55.21,19.22,14.3Z"/>
        <path class="cls-5" d="M111.38,138.25c-14.68-12.29-34.31-23.73-44.36-40.42l18.98-14.42,25.38,54.84Z"/>
        <path class="cls-4" d="M111.87,69.48c-7.69,3.95-15.2,8.31-22.92,12.2-.6.3-2.58,1.43-3.04,1.32l-17.67-21.66c8.12-9.46,21.52-10.96,31.92-4.19,4.82,3.13,8.08,7.98,11.7,12.33Z"/>
        <path class="cls-1" d="M155.74,61.35l-17.87,21.71-25.75-13.57c5.53-7.51,11.64-14.63,21.4-16.19,8.1-1.29,16.93,1.74,22.23,8.06Z"/>
      </g>
    </g>
  </g>
</svg>